<?xml version="1.0" encoding="utf-8"?>
<!-- Generator: Adobe Illustrator 28.0.0, SVG Export Plug-In . SVG Version: 6.00 Build 0)  -->
<svg version="1.1" id="레이어_1" xmlns="http://www.w3.org/2000/svg" xmlns:xlink="http://www.w3.org/1999/xlink" x="0px"
	 y="0px" viewBox="0 0 1920 478.96" style="enable-background:new 0 0 1920 478.96;" xml:space="preserve">
<style type="text/css">
	.st0{fill:#2D272D;}
</style>
<path class="st0" d="M375.59,109.69c-47.84-19.21-131.05-12.6-159.09-8.43c-11.6,1.73-13.87,17.14-15.22,26.35
	c-0.11,0.75-0.21,1.45-0.32,2.09c-2.44,15.51-3.31,31.21-3.92,44.71c-1.82,39.87-1.24,79.68-0.35,116.76
	c0.78,32.18,2.02,64.96,3.7,97.41l0.21,4.24c0.27,5.37,0.55,10.91,0.97,16.38c0.3,3.83,2.03,7.07,5.16,9.61
	c6.42,5.22,18.37,6.82,31.03,6.82c13.57,0,27.94-1.84,37.16-3.01l1.65-0.21c16.26-2.06,14.46-37.02,12.87-67.86
	c-0.53-10.16-1.02-19.76-0.67-26.11c0.17-3.09,2.71-5.53,5.79-5.57c56.64-0.68,89.7-10.05,110.43-31.22
	c19.01-17.35,33.25-57.92,22.21-109.45C419.2,144.83,399.91,117.73,375.59,109.69 M284.31,190.85c-0.02-5.39-0.04-10.96,1.15-16.09
	c1.37-5.88,2.29-6.78,7.63-7.46c3.98-0.51,7.83-0.76,11.53-0.76c5.79,0,11.21,0.62,16.18,1.86c18.84,4.7,30.3,20.08,30.64,41.15
	c0.25,15.54-4.07,27.56-12.85,35.72c-10.07,9.36-26.36,13.56-45.89,11.8c-0.47-0.04-0.92-0.08-1.34-0.11
	c-3.1-0.23-3.22-0.24-3.93-2.1c-2.45-6.38-2.55-14.68-2.65-22.71c-0.03-2.74-0.06-5.32-0.19-7.8c-0.4-7.82-0.35-16.33-0.3-24.56
	c0.01-2.12,0.03-4.21,0.03-6.25L284.31,190.85z"/>
<path class="st0" d="M796.19,130.69v-0.1c-0.23-5.25-2.53-9.6-6.85-12.93c-18.22-14.04-68.55-4.56-69.05-4.46
	c-10.21,2.22-16.58,8.87-16.66,17.36c-1.28,12.8-0.68,33.76,0.02,58.02c1.54,53.12,3.64,125.87-14.86,147.93l-0.15,0.19
	c-11.08,15.73-28.06,23.71-50.34,23.71c-21.27-0.76-37.19-7.28-48.7-19.94c-27.34-30.1-23.75-89.37-20.59-141.66
	c1.65-27.2,3.2-52.91,0.08-71.47c-0.13-9.67-8.22-18.41-17.43-18.78c-1.6-0.06-3.79-0.22-6.42-0.4c-18.46-1.3-52.82-3.7-65.26,8.85
	c-3.42,3.45-4.97,7.74-4.6,12.75c-0.05,14.69-0.39,29.75-0.71,44.31c-1.85,82.32-3.6,160.07,41.55,206.75
	c26.49,27.39,66.48,41,122.26,41.61c0.93,0.01,1.86,0.01,2.78,0.01c52.14,0,90.15-13.09,116.12-39.97
	c47.11-48.75,43.48-132.83,40.28-207C796.98,159.71,796.34,144.83,796.19,130.69"/>
<path class="st0" d="M1743.12,122.51c-11.41-9.11-23.76-17.7-26.52-19.51c-6.57-5.13-16.14-4.05-21.33,2.37
	c-1.51,1.73-2.88,3.3-4.13,4.73c-3.32,3.79-5.72,6.53-7.29,8.57c-3.95,5.14-7.86,10.31-11.77,15.48
	c-3.42,4.53-6.85,9.06-10.31,13.57c-7.29,9.51-15.82,20.52-24.66,30.77c-0.86,1-1.74,2.04-2.63,3.1
	c-4.66,5.54-9.94,11.83-15.9,14.95c-3.97,2.07-9.54-5.96-12.87-10.76c-0.98-1.42-1.83-2.64-2.62-3.63
	c-4.48-5.61-8.95-11.39-13.28-16.97c-3.15-4.06-6.29-8.13-9.47-12.16c-7.49-9.53-16.25-20.54-25.5-30.74l-1.6-1.77
	c-5.83-6.47-12.44-13.8-20.53-17.87c-7.09-3.56-11.48,0.09-15.36,3.3c-0.42,0.35-0.85,0.7-1.3,1.06
	c-5.07,4.09-9.27,7.52-13.21,10.79l-2.48,2.06c-8.49,7.04-17.27,14.32-24.74,22.68c-3.01,3.37-3.62,8.28-1.52,12.22
	c8.79,16.49,45.56,59.26,72.41,90.49c12.37,14.39,24.07,28,25.63,30.6l0.07,0.37l0.44,0.56c2.14,2.71,2.18,8.68,2.2,13.04
	c0.01,1.07,0.01,2.07,0.05,2.96c0.35,9.69,0.16,19.59-0.02,29.17l-0.07,3.8c-0.07,3.92-0.16,7.86-0.26,11.8
	c-0.49,20.1-0.99,40.88,2.02,60.99c0.77,5.16,1.72,10.6,4.11,15.43c3.61,7.3,11.03,8.04,16.98,8.62c0.89,0.09,1.77,0.17,2.64,0.28
	c5.61,0.69,11.49,1.14,17.49,1.33l2,0.07c2.69,0.1,5.63,0.2,8.67,0.2c9.62,0,20.29-1.04,27.75-6.69c3.86-2.92,5.87-6.99,5.69-11.5
	c0.41-2.89,0.34-12.41-0.03-41.24c-0.39-30.09-1.04-80.11,0.82-86.54l0.35-0.3l0.15-0.81c1.55-3.31,18.22-22.68,34.36-41.42
	c38.84-45.11,66.48-77.78,68.17-86.97C1766.52,145.42,1764.34,139.45,1743.12,122.51"/>
<path class="st0" d="M1138.78,273.81c-0.31-4.51-0.66-9.62-3.56-14.13c-1.57-2.45-3.65-4.25-6.17-5.35
	c-4.73-2.08-10.39-2.07-15.37-2.06l-88.37,0c-3.12-0.06-5.84,1.03-7.94,3.19c-6.39,6.58-5.57,21.63-5.18,28.85
	c0.05,0.89,0.09,1.62,0.1,2.23c0.72,12.98,14.33,12.31,24.26,11.81c6.88-0.34,12.15-0.42,12.31,1.82l0.17,2.23
	c0.54,7.23,1.1,14.7,1.19,22.03c0.05,4.49,0.02,9.28-0.59,13.87l-0.11,0.9c-0.21,1.76-0.48,3.94-1.37,4.89
	c-0.29,0.32-1.85,0.45-2.6,0.51c-0.42,0.04-0.83,0.07-1.21,0.12c-4.35,0.54-8.88,0.89-13.48,1.05c-13.51,0.46-26.12-0.77-37.49-3.66
	c-13.22-3.36-24.42-8.93-33.22-16.51c-20.58-18.66-30.34-49.4-24.85-78.32c5.43-28.66,24.83-51.26,53.25-62.02
	c16.1-6.43,34.24-8.5,50.23-10.33c22.01-2.52,39.39-4.51,40-17.56l0.03-0.76l-0.04-0.08c-0.06-5.43-0.46-42.24-0.46-42.24
	c-0.07-6.94-5.55-12.57-12.46-12.83c-83.69-3.04-153.34,20.19-190.99,63.63c-33.13,36.86-43.36,97.61-25.44,151.17
	c15.49,46.3,49.66,77.82,93.78,86.49c34.29,10,66.04,8.51,89.24,7.43c6.52-0.31,12.29-0.57,16.94-0.51
	c1.18,5.65,3.43,11.74,12.88,13.04c3.06,0.42,18.86,2.47,35.17,2.47c14.32,0,29.03-1.59,35.85-7.26c2.73-2.27,4.19-5.07,4.34-8.31
	c0.27-5.88,0.56-11.75,0.85-17.63c1.2-24.33,2.43-49.48,2.36-74.33c-0.04-12.24-0.21-26.45-1.74-40.31
	C1138.94,276.19,1138.86,275,1138.78,273.81"/>
<path class="st0" d="M1475.47,273.82c-0.31-4.51-0.66-9.63-3.56-14.13c-1.57-2.45-3.65-4.25-6.17-5.35
	c-4.73-2.08-10.4-2.07-15.37-2.06l-88.37,0c-3.14-0.06-5.84,1.03-7.94,3.19c-6.39,6.58-5.58,21.62-5.18,28.85
	c0.05,0.9,0.09,1.62,0.1,2.24c0.73,12.98,14.34,12.31,24.26,11.81c6.88-0.34,12.15-0.42,12.31,1.82l0.17,2.22
	c0.54,7.23,1.1,14.7,1.18,22.04c0.05,4.5,0.02,9.29-0.59,13.87l-0.11,0.89c-0.21,1.76-0.48,3.94-1.37,4.9
	c-0.29,0.32-1.85,0.45-2.6,0.51c-0.42,0.04-0.83,0.07-1.21,0.12c-4.35,0.54-8.88,0.89-13.48,1.05c-13.51,0.46-26.12-0.77-37.5-3.66
	c-13.22-3.36-24.42-8.93-33.22-16.51c-20.58-18.66-30.34-49.4-24.86-78.32c5.43-28.66,24.83-51.26,53.26-62.02
	c16.1-6.43,34.24-8.5,50.23-10.33c22.01-2.52,39.39-4.5,40-17.56l0.03-0.77l-0.04-0.08c-0.06-5.43-0.47-42.24-0.47-42.24
	c-0.07-6.94-5.54-12.57-12.45-12.82c-83.65-3.03-153.34,20.19-190.99,63.63c-33.13,36.86-43.36,97.61-25.44,151.17
	c15.49,46.3,49.66,77.82,93.77,86.49c34.29,10,66.05,8.51,89.25,7.43c6.52-0.31,12.29-0.57,16.94-0.5
	c1.18,5.65,3.44,11.74,12.88,13.03c3.05,0.42,18.86,2.47,35.17,2.47c14.32,0,29.04-1.59,35.85-7.26c2.73-2.27,4.19-5.07,4.34-8.31
	c0.27-5.87,0.56-11.74,0.85-17.61c1.2-24.33,2.43-49.49,2.36-74.34c-0.03-12.22-0.2-26.43-1.74-40.31
	C1475.64,276.19,1475.55,275.01,1475.47,273.82"/>
</svg>
